<?xml version="1.0" encoding="UTF-8" standalone="no"?>
<!DOCTYPE svg PUBLIC "-//W3C//DTD SVG 1.1//EN" "http://www.w3.org/Graphics/SVG/1.1/DTD/svg11.dtd">
<svg width="100%" height="100%" viewBox="0 0 1000 1000" version="1.1" xmlns="http://www.w3.org/2000/svg" xmlns:xlink="http://www.w3.org/1999/xlink" xml:space="preserve" xmlns:serif="http://www.serif.com/" style="fill-rule:evenodd;clip-rule:evenodd;stroke-linejoin:round;stroke-miterlimit:2;">
    <g transform="matrix(0.730994,0,0,0.803213,75.292398,64.257028)">
        <path d="M1265,293.5L1265,791.5C1265,997.64 1081.106,1165 854.6,1165L307.4,1165C80.894,1165 -103,997.64 -103,791.5L-103,293.5C-103,87.36 80.894,-80 307.4,-80L854.6,-80C1081.106,-80 1265,87.36 1265,293.5Z"/>
    </g>
    <g transform="matrix(4.010773,0,0,4.010773,-1495.11802,-1676.232275)">
        <g transform="matrix(50,0,0,50,419.233469,560.909159)">
            <path d="M0.088,-0C0.081,-0 0.075,-0.003 0.07,-0.008C0.065,-0.013 0.062,-0.019 0.062,-0.026L0.062,-0.674C0.062,-0.681 0.065,-0.687 0.07,-0.692C0.075,-0.697 0.081,-0.7 0.088,-0.7L0.362,-0.7C0.426,-0.7 0.482,-0.69 0.53,-0.669C0.578,-0.648 0.615,-0.617 0.642,-0.576C0.67,-0.536 0.684,-0.486 0.686,-0.426C0.687,-0.397 0.688,-0.372 0.688,-0.35C0.688,-0.328 0.687,-0.303 0.686,-0.275C0.683,-0.213 0.669,-0.161 0.643,-0.12C0.618,-0.079 0.581,-0.049 0.535,-0.03C0.488,-0.01 0.432,-0 0.367,-0L0.088,-0ZM0.277,-0.17L0.362,-0.17C0.384,-0.17 0.403,-0.173 0.418,-0.181C0.433,-0.188 0.445,-0.199 0.454,-0.215C0.462,-0.231 0.467,-0.251 0.468,-0.276C0.469,-0.295 0.47,-0.313 0.47,-0.328C0.47,-0.343 0.47,-0.359 0.47,-0.374C0.47,-0.39 0.469,-0.407 0.468,-0.425C0.466,-0.462 0.456,-0.488 0.437,-0.505C0.417,-0.522 0.391,-0.53 0.357,-0.53L0.277,-0.53L0.277,-0.17Z" style="fill:white;fill-rule:nonzero;"/>
        </g>
        <g transform="matrix(50,0,0,50,455.642844,560.909159)">
            <path d="M0.078,-0C0.071,-0 0.064,-0.003 0.059,-0.008C0.054,-0.013 0.052,-0.019 0.052,-0.026L0.052,-0.494C0.052,-0.501 0.054,-0.507 0.059,-0.512C0.064,-0.517 0.071,-0.52 0.078,-0.52L0.226,-0.52C0.234,-0.52 0.24,-0.517 0.245,-0.512C0.25,-0.507 0.253,-0.501 0.253,-0.494L0.253,-0.026C0.253,-0.019 0.25,-0.013 0.245,-0.008C0.24,-0.003 0.234,-0 0.226,-0L0.078,-0ZM0.08,-0.585C0.073,-0.585 0.066,-0.587 0.061,-0.592C0.056,-0.597 0.054,-0.604 0.054,-0.611L0.054,-0.716C0.054,-0.723 0.056,-0.73 0.061,-0.735C0.066,-0.74 0.073,-0.743 0.08,-0.743L0.224,-0.743C0.231,-0.743 0.238,-0.74 0.243,-0.735C0.248,-0.73 0.251,-0.723 0.251,-0.716L0.251,-0.611C0.251,-0.604 0.248,-0.597 0.243,-0.592C0.238,-0.587 0.231,-0.585 0.224,-0.585L0.08,-0.585Z" style="fill:white;fill-rule:nonzero;"/>
        </g>
        <g transform="matrix(50,0,0,50,470.855344,560.909159)">
            <path d="M0.213,0.01C0.176,0.01 0.143,0.003 0.114,-0.011C0.085,-0.025 0.063,-0.043 0.046,-0.067C0.03,-0.091 0.022,-0.118 0.022,-0.147C0.022,-0.195 0.041,-0.233 0.08,-0.261C0.119,-0.288 0.172,-0.307 0.237,-0.318L0.352,-0.336L0.352,-0.343C0.352,-0.364 0.349,-0.38 0.343,-0.39C0.336,-0.4 0.323,-0.405 0.303,-0.405C0.289,-0.405 0.277,-0.403 0.269,-0.397C0.26,-0.392 0.252,-0.384 0.245,-0.374C0.239,-0.367 0.23,-0.363 0.219,-0.363L0.078,-0.363C0.071,-0.363 0.065,-0.365 0.061,-0.369C0.057,-0.373 0.055,-0.378 0.056,-0.385C0.056,-0.397 0.061,-0.411 0.071,-0.427C0.08,-0.444 0.095,-0.46 0.115,-0.475C0.135,-0.491 0.16,-0.504 0.191,-0.514C0.222,-0.525 0.26,-0.53 0.304,-0.53C0.348,-0.53 0.387,-0.525 0.419,-0.515C0.451,-0.505 0.477,-0.491 0.498,-0.473C0.518,-0.455 0.534,-0.433 0.544,-0.407C0.554,-0.382 0.559,-0.353 0.559,-0.322L0.559,-0.026C0.559,-0.019 0.556,-0.013 0.551,-0.008C0.546,-0.003 0.54,-0 0.533,-0L0.388,-0C0.38,-0 0.374,-0.003 0.369,-0.008C0.364,-0.013 0.361,-0.019 0.361,-0.026L0.361,-0.058C0.352,-0.045 0.341,-0.033 0.326,-0.023C0.312,-0.013 0.295,-0.005 0.276,0.001C0.257,0.007 0.236,0.01 0.213,0.01ZM0.271,-0.121C0.287,-0.121 0.302,-0.125 0.315,-0.131C0.327,-0.138 0.337,-0.149 0.344,-0.164C0.351,-0.178 0.355,-0.197 0.355,-0.219L0.355,-0.226L0.283,-0.212C0.258,-0.207 0.241,-0.2 0.231,-0.192C0.221,-0.183 0.216,-0.173 0.216,-0.162C0.216,-0.154 0.218,-0.147 0.223,-0.141C0.228,-0.135 0.235,-0.13 0.243,-0.126C0.251,-0.123 0.26,-0.121 0.271,-0.121Z" style="fill:white;fill-rule:nonzero;"/>
        </g>
        <g transform="matrix(50,0,0,50,501.149094,560.909159)">
            <path d="M0.063,-0C0.056,-0 0.05,-0.003 0.045,-0.008C0.04,-0.013 0.037,-0.019 0.037,-0.026L0.037,-0.123C0.037,-0.13 0.039,-0.137 0.042,-0.142C0.045,-0.148 0.048,-0.153 0.053,-0.157L0.27,-0.369L0.071,-0.369C0.064,-0.369 0.057,-0.372 0.052,-0.377C0.047,-0.382 0.045,-0.388 0.045,-0.395L0.045,-0.494C0.045,-0.501 0.047,-0.507 0.052,-0.512C0.057,-0.517 0.064,-0.52 0.071,-0.52L0.493,-0.52C0.5,-0.52 0.506,-0.517 0.511,-0.512C0.516,-0.507 0.519,-0.501 0.519,-0.494L0.519,-0.388C0.519,-0.383 0.518,-0.377 0.515,-0.372C0.513,-0.368 0.509,-0.363 0.505,-0.359L0.296,-0.151L0.514,-0.151C0.521,-0.151 0.527,-0.148 0.532,-0.143C0.537,-0.138 0.54,-0.132 0.54,-0.125L0.54,-0.026C0.54,-0.019 0.537,-0.013 0.532,-0.008C0.527,-0.003 0.521,-0 0.514,-0L0.063,-0Z" style="fill:white;fill-rule:nonzero;"/>
        </g>
        <g transform="matrix(50,0,0,50,529.711594,560.909159)">
            <path d="M0.213,0.01C0.176,0.01 0.143,0.003 0.114,-0.011C0.085,-0.025 0.063,-0.043 0.046,-0.067C0.03,-0.091 0.022,-0.118 0.022,-0.147C0.022,-0.195 0.041,-0.233 0.08,-0.261C0.119,-0.288 0.172,-0.307 0.237,-0.318L0.352,-0.336L0.352,-0.343C0.352,-0.364 0.349,-0.38 0.343,-0.39C0.336,-0.4 0.323,-0.405 0.303,-0.405C0.289,-0.405 0.277,-0.403 0.269,-0.397C0.26,-0.392 0.252,-0.384 0.245,-0.374C0.239,-0.367 0.23,-0.363 0.219,-0.363L0.078,-0.363C0.071,-0.363 0.065,-0.365 0.061,-0.369C0.057,-0.373 0.055,-0.378 0.056,-0.385C0.056,-0.397 0.061,-0.411 0.071,-0.427C0.08,-0.444 0.095,-0.46 0.115,-0.475C0.135,-0.491 0.16,-0.504 0.191,-0.514C0.222,-0.525 0.26,-0.53 0.304,-0.53C0.348,-0.53 0.387,-0.525 0.419,-0.515C0.451,-0.505 0.477,-0.491 0.498,-0.473C0.518,-0.455 0.534,-0.433 0.544,-0.407C0.554,-0.382 0.559,-0.353 0.559,-0.322L0.559,-0.026C0.559,-0.019 0.556,-0.013 0.551,-0.008C0.546,-0.003 0.54,-0 0.533,-0L0.388,-0C0.38,-0 0.374,-0.003 0.369,-0.008C0.364,-0.013 0.361,-0.019 0.361,-0.026L0.361,-0.058C0.352,-0.045 0.341,-0.033 0.326,-0.023C0.312,-0.013 0.295,-0.005 0.276,0.001C0.257,0.007 0.236,0.01 0.213,0.01ZM0.271,-0.121C0.287,-0.121 0.302,-0.125 0.315,-0.131C0.327,-0.138 0.337,-0.149 0.344,-0.164C0.351,-0.178 0.355,-0.197 0.355,-0.219L0.355,-0.226L0.283,-0.212C0.258,-0.207 0.241,-0.2 0.231,-0.192C0.221,-0.183 0.216,-0.173 0.216,-0.162C0.216,-0.154 0.218,-0.147 0.223,-0.141C0.228,-0.135 0.235,-0.13 0.243,-0.126C0.251,-0.123 0.26,-0.121 0.271,-0.121Z" style="fill:white;fill-rule:nonzero;"/>
        </g>
        <g transform="matrix(50,0,0,50,560.005344,560.909159)">
            <path d="M0.074,-0C0.067,-0 0.061,-0.003 0.055,-0.008C0.05,-0.013 0.048,-0.019 0.048,-0.026L0.048,-0.176C0.048,-0.184 0.05,-0.19 0.055,-0.195C0.061,-0.2 0.067,-0.203 0.074,-0.203L0.224,-0.203C0.231,-0.203 0.238,-0.2 0.243,-0.195C0.248,-0.19 0.251,-0.184 0.251,-0.176L0.251,-0.026C0.251,-0.019 0.248,-0.013 0.243,-0.008C0.238,-0.003 0.231,-0 0.224,-0L0.074,-0Z" style="fill:white;fill-rule:nonzero;"/>
        </g>
        <g transform="matrix(50,0,0,50,574.911594,560.909159)">
        </g>
    </g>
</svg>
